<svg xmlns="http://www.w3.org/2000/svg" version="1.1" xmlns:xlink="http://www.w3.org/1999/xlink" xmlns:svgjs="http://svgjs.dev/svgjs" width="128" height="128" viewBox="0 0 128 128"><g transform="matrix(0.44782608695652176,0,0,0.44782608695652176,35.339144192000006,12.5)"><svg viewBox="0 0 125 225" data-background-color="#0023ff" preserveAspectRatio="xMidYMid meet" height="230" width="128" xmlns="http://www.w3.org/2000/svg" xmlns:xlink="http://www.w3.org/1999/xlink"><g id="tight-bounds" transform="matrix(1,0,0,1,-0.00003000000000952241,0)"><svg viewBox="0 0 125 225" height="225" width="125"><g><svg></svg></g><g><svg viewBox="0 0 125 225" height="225" width="125"><g><path transform="translate(-10.08065,39.91935) scale(4.03226,4.03226)" d="M18 33.5c8.55 0 15.5-6.95 15.5-15.5 0-8.55-6.95-15.5-15.5-15.5-8.55 0-15.5 6.95-15.5 15.5 0 8.55 6.95 15.5 15.5 15.5zM18.5 32.47v-1c7.04-0.26 12.71-5.93 12.97-12.97h1c-0.26 7.6-6.37 13.71-13.97 13.97zM18.5 3.53c7.6 0.26 13.71 6.37 13.97 13.97h-1c-0.26-7.04-5.93-12.71-12.97-12.97zM30.5 18c0 6.89-5.61 12.5-12.5 12.5-6.89 0-12.5-5.61-12.5-12.5 0-6.89 5.61-12.5 12.5-12.5 6.89 0 12.5 5.61 12.5 12.5zM17.5 3.53v1c-7.04 0.26-12.71 5.93-12.97 12.97h-1c0.26-7.6 6.37-13.71 13.97-13.97zM4.53 18.5c0.26 7.04 5.93 12.71 12.97 12.97v1c-7.6-0.26-13.71-6.37-13.97-13.97z" fill="#ffffff" fill-rule="nonzero" stroke="none" stroke-width="1" stroke-linecap="butt" stroke-linejoin="miter" stroke-miterlimit="10" stroke-dasharray="" stroke-dashoffset="0" font-family="none" font-weight="none" font-size="none" text-anchor="none" style="mix-blend-mode: normal" data-fill-palette-color="tertiary"></path></g><g transform="matrix(1,0,0,1,48.17785,104.42852119046906)"><svg viewBox="0 0 28.644300000000005 16.14295761906189" height="16.14295761906189" width="28.644300000000005"><g><svg viewBox="0 0 28.644300000000005 16.14295761906189" height="16.14295761906189" width="28.644300000000005"><g><svg viewBox="0 0 28.644300000000005 16.14295761906189" height="16.14295761906189" width="28.644300000000005"><g><svg viewBox="0 0 28.644300000000005 16.14295761906189" height="16.14295761906189" width="28.644300000000005"><g><svg viewBox="0 0 28.644300000000005 16.14295761906189" height="16.14295761906189" width="28.644300000000005"><g><svg viewBox="0 0 28.644300000000005 16.14295761906189" height="16.14295761906189" width="28.644300000000005"><g><svg xmlns="http://www.w3.org/2000/svg" xmlns:xlink="http://www.w3.org/1999/xlink" version="1.1" x="0" y="0" viewBox="8.52125194176952 19.000999999999994 54.07780999125868 30.47642270261694" enable-background="new 0 0 72 72" xml:space="preserve" height="16.14295761906189" width="28.644300000000005" class="icon-icon-0" data-fill-palette-color="accent" id="icon-0"><g fill="#f8fafc" data-fill-palette-color="accent"><path d="M62.556 38.834c-0.026-0.088-0.211-0.17-0.309-0.309 0.072-0.155 0.24-0.268 0.246-0.359 0.012-0.115 0.016-0.156-0.056-0.555-0.069-0.398-0.082-0.412-0.13-0.516-0.041-0.083-0.237-0.132-0.357-0.252 0.045-0.165 0.189-0.305 0.181-0.395-0.009-0.114-0.013-0.156-0.151-0.537-0.137-0.38-0.152-0.392-0.217-0.485-0.056-0.074-0.257-0.089-0.396-0.186 0.016-0.17 0.133-0.333 0.109-0.42-0.028-0.111-0.039-0.151-0.242-0.503-0.201-0.351-0.219-0.358-0.299-0.439-0.066-0.065-0.268-0.044-0.422-0.115-0.015-0.17 0.072-0.35 0.034-0.433-0.047-0.104-0.064-0.142-0.325-0.453-0.26-0.311-0.277-0.315-0.371-0.381-0.074-0.05-0.262 0.003-0.424-0.035-0.005-0.005-0.011-0.011-0.017-0.017-0.038-0.162 0.015-0.349-0.036-0.422-0.064-0.094-0.088-0.127-0.399-0.389-0.31-0.261-0.327-0.263-0.431-0.311-0.085-0.038-0.267 0.05-0.437 0.036-0.071-0.154-0.051-0.354-0.115-0.419-0.081-0.082-0.11-0.111-0.461-0.313-0.351-0.204-0.368-0.202-0.479-0.231-0.09-0.023-0.252 0.096-0.421 0.112-0.099-0.141-0.113-0.342-0.188-0.394-0.092-0.067-0.126-0.09-0.508-0.229-0.381-0.139-0.397-0.136-0.512-0.144-0.092-0.008-0.233 0.138-0.397 0.182-0.12-0.121-0.169-0.317-0.251-0.356-0.104-0.049-0.141-0.065-0.541-0.136-0.398-0.071-0.415-0.063-0.529-0.053-0.091 0.008-0.204 0.176-0.358 0.249-0.14-0.098-0.222-0.282-0.311-0.306-0.11-0.031-0.149-0.041-0.556-0.041-0.405 0-0.42 0.01-0.531 0.041-0.088 0.024-0.17 0.208-0.31 0.307-0.156-0.073-0.268-0.242-0.357-0.246-0.116-0.013-0.157-0.016-0.556 0.055-0.4 0.068-0.41 0.082-0.518 0.132-0.082 0.041-0.131 0.236-0.251 0.356-0.166-0.045-0.304-0.192-0.394-0.18-0.117 0.009-0.158 0.013-0.538 0.151-0.382 0.136-0.39 0.15-0.485 0.219-0.075 0.054-0.089 0.256-0.186 0.394-0.153-0.013-0.291-0.099-0.382-0.101l-2.12-4.701c0 0 0 0-0.001-0.001l0.343-0.155-1.587-3.501c0.319-0.527 0.665-1.168 0.677-1.854 0-0.107-0.016-0.218-0.039-0.328 0.024-0.041 0.049-0.081 0.062-0.13 0 0 0.001 0 0.006-0.021 0.004-0.021 0.01-0.06 0.01-0.1 0.017-0.197-0.147-0.456-0.314-0.527-0.163-0.083-0.284-0.086-0.397-0.088-0.381 0.007-0.803 0.13-1.282 0.242-0.47 0.114-0.969 0.218-1.3 0.217-0.081 0-0.152-0.007-0.203-0.017v0.001c-0.262-0.045-0.512 0.129-0.558 0.39-0.046 0.261 0.129 0.51 0.39 0.557 0.123 0.021 0.248 0.03 0.371 0.03 0.262-0.001 0.535-0.038 0.805-0.087-0.135 0.093-0.353 0.164-0.769 0.17-0.134 0-0.288-0.01-0.466-0.029-0.131-0.015-0.25 0.08-0.266 0.213-0.014 0.132 0.08 0.25 0.212 0.266 0.191 0.021 0.364 0.031 0.521 0.031 0 0 0.004 0 0.007 0 0.568 0 0.932-0.145 1.16-0.355 0.175-0.162 0.259-0.341 0.312-0.45 0.002 0 0.006 0 0.006 0 0.271-0.069 0.535-0.13 0.736-0.171 0.02 0.043 0.033 0.098 0.034 0.187 0.006 0.235-0.132 0.636-0.333 1.007-0.2 0.374-0.445 0.726-0.611 0.944-0.107 0.146-0.176 0.226-0.176 0.226-0.091 0.108-0.138 0.177-0.166 0.31l-0.28 0.127 0.189 0.417c-0.375 0.174-1.013 0.469-1.817 0.842-0.662 0.296-1.41 0.661-2.186 1.075-0.784 0.405-1.62 0.838-2.457 1.271-1.673 0.863-3.321 1.766-4.567 2.425-0.724 0.392-1.299 0.703-1.659 0.898l-2.994-7.756c-0.029-0.112-0.097-0.339-0.646-0.594l0.12-0.006c0.211-0.011 0.498-0.13 0.654-0.271l0.752-0.678c0.224 0.004 0.39 0.016 0.432 0.04 0.146 0.083 1.037 0.104 1.368 0.104 0.333 0 0.851 0.021 0.934 0.021s0.331-0.207-0.062-0.456c-0.395-0.249-0.975-0.747-2.695-0.747s-4.851 0-5.101 0c-0.249 0-0.593-0.041-0.87-0.124-0.324-0.097-1.493-0.165-1.679-0.083-0.188 0.083-0.153 0.283 0.166 0.582 0.214 0.199 0.59 0.557 0.801 0.662 0.164 0.083 0.746 0.316 1.372 0.467l0.331 0.367c0.141 0.154 0.408 0.27 0.623 0.27 0.01 0 0.021 0 0.029-0.001l1.043-0.054c-0.008 0.049-0.012 0.099-0.012 0.151 0 0.44 0.228 0.811 0.839 0.825 0.206 0.004 0.514-0.059 0.736-0.158 0.003 0.001 0.006 0.003 0.01 0.004l3.416 8.833c-0.353 0.126-0.699 0.28-1.012 0.463-0.07 0.013-0.14 0.038-0.202 0.083l-2.038 1.471c-0.044-0.06-0.107-0.139-0.223-0.277-0.26-0.311-0.277-0.315-0.371-0.381-0.074-0.05-0.262 0.003-0.424-0.035-0.005-0.005-0.011-0.011-0.017-0.017-0.038-0.162 0.015-0.349-0.036-0.422-0.064-0.094-0.088-0.127-0.399-0.389-0.31-0.261-0.327-0.263-0.431-0.311-0.085-0.038-0.267 0.05-0.437 0.036-0.071-0.154-0.051-0.354-0.115-0.419-0.081-0.082-0.11-0.111-0.461-0.313-0.351-0.204-0.368-0.202-0.479-0.231-0.09-0.023-0.252 0.096-0.421 0.112-0.099-0.141-0.113-0.342-0.188-0.394-0.092-0.067-0.126-0.09-0.508-0.229-0.381-0.139-0.397-0.136-0.512-0.144-0.092-0.008-0.233 0.138-0.397 0.182-0.12-0.121-0.169-0.317-0.251-0.356-0.104-0.049-0.141-0.065-0.541-0.136-0.398-0.071-0.415-0.063-0.529-0.053-0.091 0.008-0.204 0.176-0.358 0.249-0.14-0.098-0.222-0.282-0.311-0.306-0.11-0.031-0.149-0.041-0.556-0.041-0.405 0-0.42 0.01-0.531 0.041-0.088 0.024-0.17 0.208-0.31 0.307-0.156-0.073-0.268-0.242-0.357-0.246-0.116-0.013-0.157-0.016-0.556 0.055-0.4 0.068-0.41 0.082-0.518 0.132-0.082 0.041-0.131 0.236-0.251 0.356-0.166-0.045-0.304-0.192-0.394-0.18-0.117 0.009-0.158 0.013-0.538 0.151-0.382 0.136-0.39 0.15-0.485 0.219-0.075 0.054-0.089 0.256-0.186 0.394-0.172-0.015-0.334-0.135-0.42-0.109-0.114 0.029-0.154 0.039-0.504 0.242-0.352 0.201-0.357 0.217-0.44 0.301-0.064 0.065-0.043 0.266-0.113 0.419-0.172 0.015-0.353-0.076-0.433-0.035-0.107 0.049-0.145 0.066-0.454 0.326-0.312 0.26-0.314 0.275-0.382 0.372-0.05 0.075 0.004 0.264-0.034 0.424-0.004 0.004-0.008 0.009-0.013 0.013-0.164 0.04-0.353-0.017-0.424 0.038-0.097 0.065-0.131 0.09-0.391 0.398-0.262 0.311-0.262 0.326-0.311 0.434-0.038 0.083 0.051 0.266 0.036 0.434-0.156 0.072-0.356 0.049-0.417 0.115-0.084 0.082-0.113 0.111-0.316 0.462-0.204 0.351-0.2 0.366-0.23 0.479-0.023 0.09 0.096 0.254 0.111 0.421-0.142 0.099-0.343 0.111-0.393 0.187-0.067 0.096-0.091 0.13-0.229 0.51-0.142 0.381-0.135 0.396-0.146 0.513-0.007 0.092 0.139 0.233 0.184 0.396-0.122 0.121-0.319 0.168-0.354 0.252-0.05 0.105-0.066 0.143-0.137 0.541-0.074 0.398-0.064 0.414-0.055 0.53 0.01 0.092 0.178 0.206 0.249 0.357-0.099 0.141-0.283 0.222-0.304 0.31-0.032 0.112-0.042 0.152-0.041 0.557-0.004 0.406 0.008 0.42 0.037 0.531 0.026 0.088 0.212 0.171 0.309 0.31-0.074 0.155-0.241 0.268-0.246 0.358-0.012 0.115-0.016 0.156 0.056 0.555 0.067 0.4 0.081 0.411 0.13 0.517 0.041 0.083 0.238 0.133 0.357 0.252-0.046 0.166-0.191 0.304-0.18 0.394 0.008 0.117 0.012 0.158 0.15 0.537 0.137 0.383 0.152 0.392 0.219 0.486 0.054 0.074 0.257 0.089 0.395 0.185-0.016 0.172-0.136 0.334-0.108 0.42 0.028 0.113 0.039 0.152 0.242 0.503 0.2 0.353 0.218 0.358 0.299 0.44 0.065 0.063 0.268 0.043 0.421 0.114 0.015 0.172-0.075 0.353-0.033 0.433 0.047 0.107 0.064 0.143 0.326 0.453 0.258 0.312 0.275 0.315 0.369 0.382 0.076 0.051 0.268-0.003 0.431 0.038 0.002 0.002 0.005 0.004 0.007 0.006 0.041 0.165-0.014 0.355 0.04 0.427 0.064 0.097 0.089 0.129 0.399 0.389 0.309 0.264 0.327 0.263 0.432 0.312 0.084 0.037 0.266-0.051 0.435-0.036 0.071 0.156 0.05 0.356 0.116 0.419 0.08 0.083 0.109 0.111 0.461 0.312 0.35 0.205 0.367 0.201 0.479 0.232 0.09 0.021 0.253-0.096 0.422-0.111 0.098 0.141 0.112 0.342 0.188 0.393 0.094 0.068 0.128 0.09 0.509 0.228 0.38 0.142 0.396 0.136 0.513 0.146 0.091 0.006 0.231-0.139 0.395-0.183 0.121 0.122 0.169 0.317 0.254 0.354 0.104 0.051 0.141 0.066 0.539 0.137 0.398 0.072 0.414 0.062 0.53 0.055 0.092-0.01 0.205-0.177 0.358-0.25 0.14 0.099 0.221 0.283 0.311 0.305 0.111 0.031 0.15 0.04 0.555 0.04 0.405 0.003 0.42-0.01 0.531-0.038 0.09-0.025 0.171-0.209 0.31-0.308 0.155 0.073 0.268 0.241 0.359 0.246 0.114 0.012 0.155 0.014 0.554-0.056 0.399-0.067 0.41-0.083 0.517-0.13 0.083-0.042 0.132-0.237 0.251-0.357 0.166 0.045 0.305 0.191 0.396 0.181 0.115-0.009 0.156-0.014 0.535-0.151 0.382-0.137 0.391-0.152 0.486-0.217 0.074-0.056 0.089-0.257 0.186-0.396 0.171 0.016 0.333 0.134 0.422 0.109 0.111-0.029 0.15-0.041 0.501-0.242 0.353-0.201 0.358-0.219 0.441-0.299 0.064-0.067 0.043-0.268 0.113-0.422 0.171-0.014 0.352 0.075 0.435 0.034 0.104-0.048 0.143-0.065 0.451-0.325 0.312-0.26 0.314-0.277 0.383-0.371 0.05-0.076-0.004-0.266 0.036-0.428 0.003-0.003 0.006-0.006 0.009-0.01 0.165-0.04 0.354 0.015 0.428-0.039 0.095-0.066 0.129-0.09 0.388-0.399 0.262-0.31 0.262-0.327 0.312-0.431 0.037-0.086-0.052-0.267-0.038-0.436 0.156-0.072 0.356-0.05 0.42-0.117 0.082-0.08 0.111-0.109 0.312-0.461 0.205-0.35 0.202-0.367 0.233-0.478 0.022-0.091-0.097-0.253-0.112-0.423 0.141-0.098 0.342-0.112 0.393-0.188 0.067-0.094 0.091-0.128 0.229-0.508 0.002-0.005 0.003-0.007 0.005-0.013l2.89-0.915c0.145 0.037 0.317 0.07 0.516 0.07 0.486 0 0.866-0.186 0.866-0.186 0.18-0.087 0.245-0.246 0.19-0.397 0.102-0.06 0.196-0.129 0.286-0.206 0.125 0.104 0.297 0.091 0.437-0.055 0 0 0.293-0.305 0.445-0.766 0.1-0.31 0.104-0.588 0.098-0.747 0.354-0.166 0.711-0.389 1.058-0.684 0.395-0.362 0.767-0.787 1.098-1.254 0.332-0.478 0.642-0.932 0.97-1.484 0.59-1.032 1.22-2.132 1.849-3.232 0.639-1.088 1.241-2.221 1.804-3.287 0.283-0.532 0.557-1.046 0.816-1.533 0.112-0.213 0.223-0.419 0.328-0.62 0.136-0.218 0.267-0.428 0.393-0.629 0.128-0.206 0.239-0.211 0.336-0.329l0.141-0.142c0.072-0.045 0.143-0.089 0.21-0.131 0.27-0.172 0.492-0.333 0.741-0.432 0.185-0.09 0.327-0.16 0.443-0.216l0.336 0.741 0.342-0.155 2.218 4.917c-0.011 0.073-0.022 0.153-0.055 0.224-0.172 0.015-0.353-0.076-0.433-0.035-0.107 0.049-0.145 0.066-0.454 0.326-0.312 0.26-0.314 0.275-0.382 0.372-0.05 0.075 0.004 0.264-0.034 0.424-0.004 0.004-0.008 0.009-0.013 0.013-0.164 0.04-0.353-0.017-0.424 0.038-0.097 0.065-0.131 0.09-0.391 0.398-0.262 0.311-0.262 0.326-0.311 0.434-0.038 0.083 0.051 0.266 0.036 0.434-0.156 0.072-0.356 0.049-0.417 0.115-0.084 0.082-0.113 0.111-0.316 0.462-0.204 0.351-0.2 0.366-0.23 0.479-0.023 0.09 0.096 0.254 0.111 0.421-0.142 0.099-0.343 0.111-0.393 0.187-0.067 0.096-0.091 0.13-0.229 0.51-0.142 0.381-0.135 0.396-0.146 0.513-0.007 0.092 0.139 0.233 0.184 0.396-0.122 0.121-0.319 0.168-0.354 0.252-0.05 0.105-0.066 0.143-0.137 0.541-0.074 0.398-0.064 0.414-0.055 0.53 0.01 0.092 0.178 0.206 0.249 0.357-0.099 0.141-0.283 0.222-0.304 0.31-0.032 0.112-0.042 0.152-0.041 0.557-0.004 0.406 0.008 0.42 0.037 0.531 0.026 0.088 0.212 0.171 0.309 0.31-0.074 0.155-0.241 0.268-0.246 0.358-0.012 0.115-0.016 0.156 0.056 0.555 0.067 0.4 0.081 0.411 0.13 0.517 0.041 0.083 0.238 0.133 0.357 0.252-0.046 0.166-0.191 0.304-0.18 0.394 0.008 0.117 0.012 0.158 0.15 0.537 0.137 0.383 0.152 0.392 0.219 0.486 0.054 0.074 0.257 0.089 0.395 0.185-0.016 0.172-0.136 0.334-0.108 0.42 0.028 0.113 0.039 0.152 0.242 0.503 0.2 0.353 0.218 0.358 0.299 0.44 0.065 0.063 0.268 0.043 0.421 0.114 0.015 0.172-0.075 0.353-0.033 0.433 0.047 0.107 0.064 0.143 0.326 0.453 0.258 0.312 0.275 0.315 0.369 0.382 0.076 0.051 0.268-0.003 0.431 0.038 0.002 0.002 0.005 0.004 0.007 0.006 0.041 0.165-0.014 0.355 0.04 0.427 0.064 0.097 0.089 0.129 0.399 0.389 0.309 0.264 0.327 0.263 0.432 0.312 0.084 0.037 0.266-0.051 0.435-0.036 0.071 0.156 0.05 0.356 0.116 0.419 0.08 0.083 0.109 0.111 0.461 0.312 0.35 0.205 0.367 0.201 0.479 0.232 0.09 0.021 0.253-0.096 0.422-0.111 0.098 0.141 0.112 0.342 0.188 0.393 0.094 0.068 0.128 0.09 0.509 0.228 0.38 0.142 0.396 0.136 0.513 0.146 0.091 0.006 0.231-0.139 0.395-0.183 0.121 0.122 0.169 0.317 0.254 0.354 0.104 0.051 0.141 0.066 0.539 0.137 0.398 0.072 0.414 0.062 0.53 0.055 0.092-0.01 0.205-0.177 0.358-0.25 0.14 0.099 0.221 0.283 0.311 0.305 0.111 0.031 0.15 0.04 0.555 0.04 0.405 0.003 0.42-0.01 0.531-0.038 0.09-0.025 0.171-0.209 0.31-0.308 0.155 0.073 0.268 0.241 0.359 0.246 0.114 0.012 0.155 0.014 0.554-0.056 0.399-0.067 0.41-0.083 0.517-0.13 0.083-0.042 0.132-0.237 0.251-0.357 0.166 0.045 0.305 0.191 0.396 0.181 0.115-0.009 0.156-0.014 0.535-0.151 0.382-0.137 0.391-0.152 0.486-0.217 0.074-0.056 0.089-0.257 0.186-0.396 0.171 0.016 0.333 0.134 0.422 0.109 0.111-0.029 0.15-0.041 0.501-0.242 0.353-0.201 0.358-0.219 0.441-0.299 0.064-0.067 0.043-0.268 0.113-0.422 0.171-0.014 0.352 0.075 0.435 0.034 0.104-0.048 0.143-0.065 0.451-0.325 0.312-0.26 0.314-0.277 0.383-0.371 0.05-0.076-0.004-0.266 0.036-0.428 0.003-0.003 0.006-0.006 0.009-0.01 0.165-0.04 0.354 0.015 0.428-0.039 0.095-0.066 0.129-0.09 0.388-0.399 0.262-0.31 0.262-0.327 0.312-0.431 0.037-0.086-0.052-0.267-0.038-0.436 0.156-0.072 0.356-0.05 0.42-0.117 0.082-0.08 0.111-0.109 0.312-0.461 0.205-0.35 0.202-0.367 0.233-0.478 0.022-0.091-0.097-0.253-0.112-0.423 0.141-0.098 0.342-0.112 0.393-0.188 0.067-0.094 0.091-0.128 0.229-0.508 0.141-0.381 0.135-0.396 0.146-0.512 0.006-0.093-0.14-0.233-0.184-0.397 0.121-0.12 0.316-0.169 0.354-0.252 0.049-0.104 0.066-0.142 0.137-0.541 0.072-0.397 0.064-0.414 0.055-0.528-0.01-0.093-0.178-0.205-0.25-0.358 0.099-0.14 0.283-0.222 0.305-0.31 0.031-0.112 0.042-0.152 0.041-0.558C62.595 38.96 62.585 38.946 62.556 38.834zM26.082 21.166c-0.126-0.209-0.332-0.348-0.567-0.348-0.256 0-0.479 0.165-0.598 0.409l-1.137 0.058c-0.145 0.008-0.357-0.08-0.455-0.188l-0.104-0.114c0.204 0.033 0.403 0.053 0.588 0.05 0.905-0.014 1.265-0.456 1.596-0.519 0.332-0.062 0.975-0.062 0.975-0.062 0.235 0 0.869-0.021 1.397-0.022l-0.551 0.495c-0.113 0.104-0.347 0.199-0.501 0.207L26.082 21.166zM28.722 39.249c-0.001-0.278-0.012-0.316-0.037-0.414-0.026-0.088-0.211-0.17-0.309-0.309 0.072-0.155 0.24-0.268 0.246-0.359 0.009-0.083 0.012-0.132-0.014-0.302l1.387 0.02c-0.275 0.252-0.423 0.513-0.423 0.513-0.104 0.194-0.041 0.373 0.126 0.454-0.044 0.105-0.076 0.216-0.103 0.33-0.107-0.023-0.202 0.004-0.271 0.075L28.722 39.249zM20.854 39.163c-0.017-0.196-0.056-0.384-0.122-0.56l1.153-0.833 4.341 0.061c0.092 0.45 0.138 0.917 0.147 1.392L20.854 39.163zM20.106 37.745l0.104 0.001-0.055 0.039C20.14 37.772 20.123 37.758 20.106 37.745zM22.226 37.524l3.018-2.178c0.417 0.683 0.73 1.433 0.921 2.233L22.226 37.524zM32.117 35.25l-0.137 1.826c-0.01 0.126 0.05 0.238 0.141 0.312-0.005-0.001-0.022-0.005-0.022-0.005-0.211-0.037-0.36 0.07-0.392 0.248-0.049-0.003-0.095-0.015-0.145-0.015-0.017 0-0.032 0.004-0.049 0.005l0.261-5.365c0.097-0.144 0.22-0.277 0.347-0.397l-0.217 2.886C31.889 34.946 31.978 35.125 32.117 35.25zM30.375 32.812c0 0 0.021 0.013 0.057 0.031l0.168 4.658c-0.085 0.035-0.174 0.081-0.271 0.137l-1.763-0.024c0-0.001 0-0.001 0-0.002-0.069-0.398-0.082-0.412-0.13-0.516-0.041-0.083-0.237-0.132-0.357-0.252 0.045-0.165 0.189-0.305 0.181-0.395-0.009-0.114-0.013-0.156-0.151-0.537-0.137-0.38-0.152-0.392-0.217-0.485-0.056-0.074-0.257-0.089-0.396-0.186 0.016-0.17 0.133-0.333 0.109-0.42-0.028-0.111-0.039-0.151-0.242-0.503-0.119-0.208-0.173-0.292-0.214-0.345l1.925-1.39C29.734 32.259 30.375 32.812 30.375 32.812zM18.628 47.131c-4.282 0-7.754-3.472-7.754-7.754 0-4.283 3.472-7.755 7.754-7.755 2.445 0 4.623 1.134 6.044 2.903l-4.122 2.976-0.844-0.012c-0.268-0.128-0.563-0.206-0.88-0.206-1.127 0-2.043 0.916-2.043 2.047 0 1.127 0.916 2.041 2.043 2.041 0.027 0 0.052-0.007 0.078-0.008-0.228 0.105-0.388 0.332-0.388 0.6 0 0.365 0.297 0.661 0.662 0.661 0.366 0 0.662-0.296 0.662-0.661 0-0.333-0.248-0.596-0.567-0.644 0.636-0.142 1.157-0.578 1.417-1.158l5.644 0.062c-0.129 1.184-0.528 2.284-1.128 3.246l-4.526 1.433c0.043-0.088 0.072-0.184 0.072-0.289 0-0.365-0.296-0.662-0.662-0.662-0.365 0-0.662 0.297-0.662 0.662s0.297 0.662 0.662 0.662c0.07 0 0.134-0.02 0.197-0.04l0.016 0.048 4.69-1.485C23.593 45.812 21.267 47.131 18.628 47.131zM28.081 41.912c0.121-0.12 0.316-0.169 0.354-0.252 0.049-0.104 0.066-0.142 0.137-0.541 0.072-0.397 0.064-0.414 0.055-0.528-0.01-0.09-0.166-0.199-0.241-0.345l0.904 0.01c0.009 0.032 0.011 0.061 0.021 0.092 0.151 0.461 0.445 0.766 0.445 0.766 0.148 0.154 0.332 0.156 0.462 0.032 0.086 0.077 0.176 0.148 0.274 0.209-0.072 0.147-0.022 0.301 0.138 0.398l-2.405 0.761c0.028-0.095 0.033-0.136 0.04-0.205C28.271 42.216 28.125 42.076 28.081 41.912zM39.849 27.357c-0.23 0.486-0.474 0.998-0.726 1.527-0.499 1.06-1.036 2.193-1.632 3.32-0.579 1.128-1.158 2.257-1.701 3.315-0.256 0.482-0.57 0.995-0.841 1.424-0.284 0.434-0.567 0.805-0.856 1.106-0.189 0.179-0.377 0.322-0.565 0.446-0.009-0.031-0.011-0.061-0.028-0.093 0 0-0.198-0.374-0.591-0.66-0.186-0.135-0.375-0.22-0.524-0.275 0.18-0.016 0.331-0.15 0.345-0.336l0.137-1.827c0.156-0.103 0.271-0.266 0.285-0.466l0.285-3.792c0.026-0.344-0.232-0.644-0.576-0.67-0.216-0.025-0.409 0.083-0.534 0.248h-0.481c0 0-0.499 0.071-1.148 0.24l-0.155-0.401c0.364-0.168 0.989-0.458 1.78-0.824 1.282-0.579 2.98-1.376 4.696-2.129 0.856-0.377 1.714-0.754 2.518-1.108 0.374-0.17 0.732-0.326 1.077-0.47-0.121 0.202-0.247 0.411-0.377 0.628C40.11 26.818 39.981 27.084 39.849 27.357zM52.499 47.131c-4.282 0-7.754-3.472-7.754-7.754 0-2.538 1.224-4.783 3.107-6.198l3.346 7.42c0.104 0.231 0.331 0.368 0.569 0.368 0.086 0 0.174-0.018 0.257-0.055 0.166-0.075 0.278-0.214 0.332-0.374 0.048 0.006 0.09 0.028 0.139 0.028 0.656 0 1.188-0.529 1.188-1.186 0-0.658-0.531-1.188-1.188-1.188-0.334 0-0.634 0.139-0.849 0.36l-2.729-6.05c1.071-0.56 2.288-0.881 3.581-0.881 4.283 0 7.754 3.472 7.754 7.755C60.253 43.66 56.782 47.131 52.499 47.131z" fill="#ffffff" data-fill-palette-color="accent"></path><rect x="32.524" y="32.198" transform="matrix(0.0747 -0.9972 0.9972 0.0747 -1.1406 63.9167)" width="2.694" height="0.75" fill="#ffffff" data-fill-palette-color="accent"></rect></g></svg></g></svg></g></svg></g></svg></g></svg></g></svg></g></svg></g></svg></g><defs></defs></svg><rect width="125" height="225" fill="none" stroke="none" visibility="hidden"></rect></g></svg></g></svg>